999
"DXF R12 Output" (www.mydxf.blogspot.com)
 0 
SECTION
 2 
HEADER
 9 
$ACADVER
 1 
AC1009
 9 
$EXTMIN
 10 
 0 
 20 
 0 
 9 
$EXTMAX
 10 
 8.5 
 20 
 11 
 0 
ENDSEC
 0 
SECTION
 2 
ENTITIES
0
LINE
8
Export Layer
10
-2.446130
20
0.000048
11
-3.608375
21
-0.049040
0
LINE
8
Export Layer
10
-3.608375
20
-0.049040
11
-6.678151
21
-0.369985
0
LINE
8
Export Layer
10
-6.678151
20
-0.369985
11
-11.030016
21
-1.223308
0
LINE
8
Export Layer
10
-11.030016
20
-1.223308
11
-13.491282
21
-1.931025
0
LINE
8
Export Layer
10
-13.491282
20
-1.931025
11
-16.038530
21
-2.869532
0
LINE
8
Export Layer
10
-16.038530
20
-2.869532
11
-17.986475
21
-3.814334
0
LINE
8
Export Layer
10
-17.986475
20
-3.814334
11
-19.188454
21
-4.713981
0
LINE
8
Export Layer
10
-19.188454
20
-4.713981
11
-19.808401
21
-5.625694
0
LINE
8
Export Layer
10
-19.808401
20
-5.625694
11
-20.010250
21
-6.606692
0
LINE
8
Export Layer
10
-20.010250
20
-6.606692
11
-19.836766
21
-9.779024
0
LINE
8
Export Layer
10
-19.836766
20
-9.779024
11
-19.583799
21
-11.342235
0
LINE
8
Export Layer
10
-19.583799
20
-11.342235
11
-19.261213
21
-12.353552
0
LINE
8
Export Layer
10
-19.261213
20
-12.353552
11
-18.315326
21
-13.393061
0
LINE
8
Export Layer
10
-18.315326
20
-13.393061
11
-17.734627
21
-13.713174
0
LINE
8
Export Layer
10
-17.734627
20
-13.713174
11
-17.154103
21
-13.831352
0
LINE
8
Export Layer
10
-17.154103
20
-13.831352
11
-6.411803
21
-13.866630
0
LINE
8
Export Layer
10
-6.411803
20
-13.866630
11
-6.198302
21
-13.157036
0
LINE
8
Export Layer
10
-6.198302
20
-13.157036
11
-5.861213
21
-12.429703
0
LINE
8
Export Layer
10
-5.861213
20
-12.429703
11
-5.308154
21
-11.595930
0
LINE
8
Export Layer
10
-5.308154
20
-11.595930
11
-4.492318
21
-10.762157
0
LINE
8
Export Layer
10
-4.492318
20
-10.762157
11
-3.366896
21
-10.034824
0
LINE
8
Export Layer
10
-3.366896
20
-10.034824
11
-1.885081
21
-9.520368
0
LINE
8
Export Layer
10
-1.885081
20
-9.520368
11
-0.000063
21
-9.325230
0
LINE
8
Export Layer
10
-0.000063
20
-9.325230
11
1.884934
21
-9.520364
0
LINE
8
Export Layer
10
1.884934
20
-9.520364
11
3.366690
21
-10.034815
0
LINE
8
Export Layer
10
3.366690
20
-10.034815
11
4.492026
21
-10.762143
0
LINE
8
Export Layer
10
4.492026
20
-10.762143
11
5.307763
21
-11.595911
0
LINE
8
Export Layer
10
5.307763
20
-11.595911
11
5.860722
21
-12.429680
0
LINE
8
Export Layer
10
5.860722
20
-12.429680
11
6.197724
21
-13.157010
0
LINE
8
Export Layer
10
6.197724
20
-13.157010
11
6.411140
21
-13.866600
0
LINE
8
Export Layer
10
6.411140
20
-13.866600
11
17.153440
21
-13.831322
0
LINE
8
Export Layer
10
17.153440
20
-13.831322
11
17.734053
21
-13.713144
0
LINE
8
Export Layer
10
17.734053
20
-13.713144
11
18.314943
21
-13.393031
0
LINE
8
Export Layer
10
18.314943
20
-13.393031
11
19.261110
21
-12.353522
0
LINE
8
Export Layer
10
19.261110
20
-12.353522
11
19.583694
21
-11.342208
0
LINE
8
Export Layer
10
19.583694
20
-11.342208
11
19.836655
21
-9.778996
0
LINE
8
Export Layer
10
19.836655
20
-9.778996
11
20.010147
21
-6.606662
0
LINE
8
Export Layer
10
20.010147
20
-6.606662
11
19.808304
21
-5.625668
0
LINE
8
Export Layer
10
19.808304
20
-5.625668
11
19.188357
21
-4.713955
0
LINE
8
Export Layer
10
19.188357
20
-4.713955
11
17.986375
21
-3.814305
0
LINE
8
Export Layer
10
17.986375
20
-3.814305
11
16.038427
21
-2.869502
0
LINE
8
Export Layer
10
16.038427
20
-2.869502
11
13.491191
21
-1.930996
0
LINE
8
Export Layer
10
13.491191
20
-1.930996
11
11.029930
21
-1.223280
0
LINE
8
Export Layer
10
11.029930
20
-1.223280
11
6.678063
21
-0.369956
0
LINE
8
Export Layer
10
6.678063
20
-0.369956
11
3.608278
21
-0.049010
0
LINE
8
Export Layer
10
3.608278
20
-0.049010
11
2.446027
21
0.000078
0
LINE
8
Export Layer
10
2.446027
20
0.000078
11
2.484610
21
-3.591032
0
LINE
8
Export Layer
10
2.484610
20
-3.591032
11
2.121716
21
-4.040449
0
LINE
8
Export Layer
10
2.121716
20
-4.040449
11
1.773918
21
-4.348078
0
LINE
8
Export Layer
10
1.773918
20
-4.348078
11
1.409280
21
-4.485083
0
LINE
8
Export Layer
10
1.409280
20
-4.485083
11
-0.000050
21
-4.465328
0
LINE
8
Export Layer
10
-0.000050
20
-4.465328
11
-1.409940
21
-4.485083
0
LINE
8
Export Layer
10
-1.409940
20
-4.485083
11
-1.774493
21
-4.348126
0
LINE
8
Export Layer
10
-1.774493
20
-4.348126
11
-2.122103
21
-4.040492
0
LINE
8
Export Layer
10
-2.122103
20
-4.040492
11
-2.484720
21
-3.591032
0
LINE
8
Export Layer
10
-2.484720
20
-3.591032
11
-2.446130
21
0.000048
0
LINE
8
Export Layer
10
-9.739740
20
-5.771622
11
-10.353567
21
-5.904158
0
LINE
8
Export Layer
10
-10.353567
20
-5.904158
11
-10.853265
21
-6.248102
0
LINE
8
Export Layer
10
-10.853265
20
-6.248102
11
-11.189321
21
-6.753157
0
LINE
8
Export Layer
10
-11.189321
20
-6.753157
11
-11.312220
21
-7.369022
0
LINE
8
Export Layer
10
-11.312220
20
-7.369022
11
-11.186605
21
-7.990666
0
LINE
8
Export Layer
10
-11.186605
20
-7.990666
11
-10.844263
21
-8.498265
0
LINE
8
Export Layer
10
-10.844263
20
-8.498265
11
-10.336578
21
-8.840454
0
LINE
8
Export Layer
10
-10.336578
20
-8.840454
11
-9.714930
21
-8.965862
0
LINE
8
Export Layer
10
-9.714930
20
-8.965862
11
-9.093462
21
-8.840292
0
LINE
8
Export Layer
10
-9.093462
20
-8.840292
11
-8.585959
21
-8.498067
0
LINE
8
Export Layer
10
-8.585959
20
-8.498067
11
-8.243758
21
-7.990530
0
LINE
8
Export Layer
10
-8.243758
20
-7.990530
11
-8.118200
21
-7.369022
0
LINE
8
Export Layer
10
-8.118200
20
-7.369022
11
-8.243597
21
-6.747335
0
LINE
8
Export Layer
10
-8.243597
20
-6.747335
11
-8.585761
21
-6.239615
0
LINE
8
Export Layer
10
-8.585761
20
-6.239615
11
-9.093326
21
-5.897249
0
LINE
8
Export Layer
10
-9.093326
20
-5.897249
11
-9.714930
21
-5.771622
0
LINE
8
Export Layer
10
-9.714930
20
-5.771622
11
-9.739737
21
-5.771622
0
LINE
8
Export Layer
10
-9.739737
20
-5.771622
11
-9.739740
21
-5.771622
0
LINE
8
Export Layer
10
9.714860
20
-5.771622
11
9.093256
21
-5.897249
0
LINE
8
Export Layer
10
9.093256
20
-5.897249
11
8.585691
21
-6.239615
0
LINE
8
Export Layer
10
8.585691
20
-6.239615
11
8.243527
21
-6.747335
0
LINE
8
Export Layer
10
8.243527
20
-6.747335
11
8.118130
21
-7.369022
0
LINE
8
Export Layer
10
8.118130
20
-7.369022
11
8.243688
21
-7.990530
0
LINE
8
Export Layer
10
8.243688
20
-7.990530
11
8.585889
21
-8.498067
0
LINE
8
Export Layer
10
8.585889
20
-8.498067
11
9.093392
21
-8.840292
0
LINE
8
Export Layer
10
9.093392
20
-8.840292
11
9.714860
21
-8.965862
0
LINE
8
Export Layer
10
9.714860
20
-8.965862
11
10.336508
21
-8.840454
0
LINE
8
Export Layer
10
10.336508
20
-8.840454
11
10.844193
21
-8.498265
0
LINE
8
Export Layer
10
10.844193
20
-8.498265
11
11.186535
21
-7.990666
0
LINE
8
Export Layer
10
11.186535
20
-7.990666
11
11.312150
21
-7.369022
0
LINE
8
Export Layer
10
11.312150
20
-7.369022
11
11.190633
21
-6.757686
0
LINE
8
Export Layer
10
11.190633
20
-6.757686
11
10.844391
21
-6.239417
0
LINE
8
Export Layer
10
10.844391
20
-6.239417
11
10.326158
21
-5.893150
0
LINE
8
Export Layer
10
10.326158
20
-5.893150
11
9.714860
21
-5.771622
0
LINE
8
Export Layer
10
9.714860
20
-5.771622
11
9.714860
21
-5.771622
 0 
ENDSEC
 0 
EOF